PathFileType	4	(X/Y/Z)	walk-thru1-2-TP.trc
DataRate	CameraRate	NumFrames	NumMarkers	Units	OrigDataRate	OrigDataStartFrame	OrigNumFrames
120.00	120.00	       4	60	mm	120.00	252	       503
Frame#	Time	Top.Head			Front.Head			Rear.Head			Jaw			C7			R.Clavicle			L.Clavicle			R.Shoulder			L.Shoulder			R.Scapula			L.Scapula			R.Scap.Inf			R.Biceps.Lateral			R.Elbow			R.Elbow.Medial			R.Forearm			R.Ulna			R.Radius			R.Wrist			R.Thumb.M1			R.Thumb.M2			R.Thumb.M3			R.Finger3.M1			R.Finger3.M2			R.Finger3.M3			L.Biceps.Lateral			L.Elbow			L.Elbow.Medial			L.Forearm			L.Ulna			L.Radius			L.Wrist			L.Thumb.M1			L.Thumb.M2			L.Thumb.M3			L.Finger3.M1			L.Finger3.M2			L.Finger3.M3			V.Sacral			R.ASIS			L.ASIS			R.Thigh			R.Thigh.Front			R.Knee			R.Knee.Medial			R.Shank			R.Ankle			R.Ankle.Medial			R.Heel			R.Toe			R.MedFoot			L.Thigh			L.Knee			L.Knee.Medial			L.Shank			L.Ankle			L.Ankle.Medial			L.Heel			L.Toe			L.MedFoot			V_mid_ASIS			V_R_Knee_JC			V_L_Knee_JC			V_R_Elbow_JC			V_L_Elbow_JC			V_R_Ankle_JC			V_L_Ankle_JC			V_R_Wrist_JC			V_L_Wrist_JC			V_R_ScaTrpz_1stMC_JC			V_R_1stMC_1stPP_JC			V_R_1stPP_1stDP_JC			V_R_LunCap_3rdMC_JC			V_R_3rdMC_3rdPP_JC			V_R_3rdPP_3rdMP_JC			V_R_3rdMP_3rdDP_JC			V_L_ScaTrpz_1stMC_JC			V_L_1stMC_1stPP_JC			V_L_1stPP_1stDP_JC			V_L_LunCap_3rdMC_JC			V_L_3rdMC_3rdPP_JC			V_L_3rdPP_3rdMP_JC			V_L_3rdMP_3rdPP_JC			V_ROOT_JC			V_R_Hip_JC			V_L_Hip_JC			V_R_GlenHum_JC			V_L_GlenHum_JC			V_ForeHead_Ctr			V_Vertex			V_Sagit_Lambdoid_Suture			V_R_FrontoTemp			V_L_FrontoTemporal			V_R_ParietalOccip			V_L_ParietalOcciptal			V_R_Temporal			V_L_Temporal			V_mid_FrontRearHead			V_mid_RLGlenHumCtrs			V_C7_vert			V_C1_vert			V_Mid_Hip			
		X1	Y1	Z1	X2	Y2	Z2	X3	Y3	Z3	X4	Y4	Z4	X5	Y5	Z5	X6	Y6	Z6	X7	Y7	Z7	X8	Y8	Z8	X9	Y9	Z9	X10	Y10	Z10	X11	Y11	Z11	X12	Y12	Z12	X13	Y13	Z13	X14	Y14	Z14	X15	Y15	Z15	X16	Y16	Z16	X17	Y17	Z17	X18	Y18	Z18	X19	Y19	Z19	X20	Y20	Z20	X21	Y21	Z21	X22	Y22	Z22	X23	Y23	Z23	X24	Y24	Z24	X25	Y25	Z25	X26	Y26	Z26	X27	Y27	Z27	X28	Y28	Z28	X29	Y29	Z29	X30	Y30	Z30	X31	Y31	Z31	X32	Y32	Z32	X33	Y33	Z33	X34	Y34	Z34	X35	Y35	Z35	X36	Y36	Z36	X37	Y37	Z37	X38	Y38	Z38	X39	Y39	Z39	X40	Y40	Z40	X41	Y41	Z41	X42	Y42	Z42	X43	Y43	Z43	X44	Y44	Z44	X45	Y45	Z45	X46	Y46	Z46	X47	Y47	Z47	X48	Y48	Z48	X49	Y49	Z49	X50	Y50	Z50	X51	Y51	Z51	X52	Y52	Z52	X53	Y53	Z53	X54	Y54	Z54	X55	Y55	Z55	X56	Y56	Z56	X57	Y57	Z57	X58	Y58	Z58	X59	Y59	Z59	X60	Y60	Z60	

252	2.092	-117.85522	53.03725	1802.28088	-18.11704	57.49416	1689.24768	-244.05743	54.41610	1703.59180	-62.80584	51.92472	1523.10986	-257.73511	55.69864	1568.87659	-160.88701	-66.68951	1477.93005	-146.06670	160.50430	1473.93506	-208.57463	-152.94753	1475.37732	-208.92802	258.29071	1484.33740	-311.27332	-34.06338	1489.81140	-306.72766	136.49928	1488.20947	-361.81308	-43.42851	1404.47681	-270.43417	-214.31699	1303.21973	-317.83850	-232.54930	1154.16101	-333.82416	-142.75978	1137.00012	-237.86392	-190.12361	1032.09009	-280.50919	-230.60049	935.30292	-216.59196	-176.08351	901.06372	-229.06200	-214.56403	852.17029	-207.00867	-172.40190	867.08081	-170.32628	-145.29947	822.67139	-135.00247	-146.02501	794.37384	-193.75574	-219.89244	779.04889	-177.07954	-182.05757	725.01715	-184.81729	-137.90126	701.34338	-217.82332	321.24298	1332.30908	-210.63464	362.67075	1155.43884	-255.80772	299.26346	1132.69971	-128.18275	331.84134	1065.21521	-161.33781	351.77914	966.70416	-86.11027	297.33163	932.11646	-82.03343	328.88925	873.68835	-65.34537	281.58948	872.74078	-55.79390	242.30829	826.64960	-37.70656	245.18465	768.02313	-48.46541	339.55789	804.74738	-48.52230	316.17743	747.94739	-59.59589	293.86166	701.19873	-360.15869	50.60660	1092.14575	-263.45126	-135.41011	1034.73865	-263.20514	234.67363	1033.57141	-143.95644	-118.90292	637.96710	-39.79918	-41.13691	586.11041	-87.84949	-91.38438	523.12061	-73.89375	22.98448	520.78076	-28.02305	-64.74554	353.27466	-55.43435	-90.84028	80.72788	-13.47762	-2.44300	111.48595	-95.33234	-25.44988	44.56002	118.39249	-74.52879	99.85670	66.15313	-28.16982	104.69260	-260.72165	209.33353	652.38525	-257.86063	182.50430	499.37347	-240.74902	66.86965	501.92395	-278.86206	122.07803	302.53424	-413.36261	114.93196	77.27981	-371.16559	29.05567	119.02718	-463.46283	50.70909	75.24217	-233.41039	74.33028	44.73641	-291.12485	46.33590	73.75806																																																																																																																															
253	2.100	-110.33267	52.57000	1800.96484	-10.67748	57.54132	1687.51978	-238.80844	52.99648	1702.48962	-55.81617	51.84654	1521.78931	-252.67102	55.10683	1567.20984	-155.18137	-66.97250	1477.52466	-140.30850	160.11462	1474.00891	-202.13542	-153.42999	1474.19507	-203.84094	257.77686	1483.80530	-305.85364	-34.21371	1489.15576	-301.45404	135.03230	1487.93616	-356.63913	-45.07438	1404.13440	-263.77200	-215.61333	1302.34460	-310.98703	-232.25665	1153.04761	-326.88605	-143.36096	1134.87012	-230.93697	-189.85561	1031.42493	-273.58090	-230.40700	933.99677	-209.41699	-175.36481	901.03094	-221.95175	-214.51175	851.79028	-199.97481	-172.31325	866.45496	-163.58560	-145.48160	822.45251	-128.43915	-146.15442	793.37793	-186.07103	-218.84029	778.09265	-169.63861	-182.41983	724.93439	-178.76570	-137.55627	700.00952	-212.91711	320.67282	1331.58545	-205.81870	362.82175	1154.26587	-250.22624	299.01340	1131.43201	-123.69164	332.16779	1064.58411	-157.18925	352.23526	965.67639	-82.08022	297.01874	930.79578	-77.91106	328.14081	872.11658	-59.89754	281.25269	870.90131	-51.01378	242.37015	825.68994	-32.84927	245.70532	766.47809	-45.01217	338.75977	802.56512	-43.59123	314.89874	746.63715	-55.29745	293.97815	700.33856	-353.84982	50.21717	1091.16077	-257.18326	-137.13686	1033.60168	-257.50357	234.87883	1033.30811	-141.57893	-118.53413	636.19409	-35.68009	-40.29006	585.61914	-84.26579	-91.00649	521.93237	-68.99239	24.17401	519.91333	-20.09589	-62.52897	353.63098	-40.88695	-88.50601	80.46509	0.32041	-0.26519	113.53951	-79.84894	-22.62272	43.85856	132.43765	-73.41264	103.82101	80.02313	-27.54664	106.20470	-256.54025	208.65228	651.96588	-253.66974	182.23810	498.38910	-236.43779	66.96834	501.62878	-277.22461	122.09666	301.75128	-412.96817	114.81436	77.52307	-370.90515	29.12548	119.26050	-462.95248	51.05460	76.14043	-233.86580	73.31261	44.57801	-291.07080	46.51220	73.64837																																																																																																																															
254	2.108	-104.62363	51.81449	1800.19165	-4.98109	58.09940	1687.49390	-232.32323	52.24717	1702.45667	-50.23586	50.77638	1521.31104	-246.30136	55.39786	1567.12976	-149.51237	-68.31087	1476.97937	-133.61841	159.95093	1473.64478	-195.06274	-153.87959	1473.60925	-198.30704	257.38409	1483.03711	-299.62045	-34.78833	1488.61731	-295.25723	135.24593	1486.89209	-349.52707	-45.89582	1402.52612	-256.84271	-215.74529	1302.32288	-304.25665	-233.48129	1152.25488	-320.02338	-144.08527	1134.30212	-224.47147	-190.16747	1031.25854	-265.93002	-230.01302	933.95050	-202.15262	-176.66666	899.95129	-213.76477	-213.81958	851.58307	-193.06892	-171.44513	864.95972	-156.50867	-144.57437	821.01495	-120.45058	-145.80237	793.39905	-177.91783	-219.72603	778.31805	-162.02260	-182.40678	723.65186	-169.71324	-136.62990	700.14282	-207.48227	319.73184	1330.97632	-201.19972	362.35632	1153.57751	-245.72626	298.80957	1130.59949	-118.15761	331.38403	1063.45337	-153.50151	352.57300	965.38098	-77.26637	296.66409	930.43225	-72.76260	327.52310	871.15533	-56.05295	280.95941	869.94312	-48.55699	244.00739	822.92816	-28.95240	245.40323	765.54126	-41.21041	338.51526	801.37128	-39.94810	313.81644	745.01520	-52.83597	293.52893	699.06836	-347.84464	49.42700	1090.35181	-248.99248	-137.18744	1031.91187	-251.01718	233.81523	1033.59863	-136.18655	-117.60603	634.49384	-31.63032	-39.68321	584.99921	-79.90247	-89.21128	520.74695	-63.50874	24.63699	518.95636	-12.30054	-61.57785	354.04919	-28.43806	-85.79124	80.41783	14.82800	1.34483	114.57725	-65.38853	-19.39637	43.52890	145.89175	-72.87896	105.54193	94.36498	-26.46707	109.03998	-252.76250	208.25121	651.28363	-250.78128	182.24608	497.75436	-232.74939	67.23287	501.37329	-275.03348	121.52033	301.85535	-412.50287	115.18330	78.10551	-370.11447	29.34692	119.49063	-462.67523	51.69520	76.68443	-232.91930	75.10480	44.08351	-290.97177	46.29965	73.76854																																																																																																																															
255	2.117	-97.73853	52.65810	1799.65027	-0.07491	57.29134	1687.01331	-225.68675	51.89608	1701.69983	-44.09900	50.02777	1521.25403	-239.52072	55.32920	1566.61755	-142.70578	-68.61545	1475.83557	-128.64531	158.69801	1472.66565	-189.22588	-154.43680	1472.76404	-192.95953	258.09946	1482.57532	-292.75342	-36.25347	1487.77966	-289.44919	135.20052	1486.35217	-343.33304	-46.15511	1401.27380	-251.45497	-215.93446	1301.12000	-298.00876	-233.84137	1151.63696	-314.30170	-144.06625	1133.80920	-217.15775	-191.08737	1030.81873	-259.18576	-231.78679	933.28058	-194.90608	-175.86946	899.27777	-206.75111	-215.34634	850.61420	-184.18022	-172.34933	865.53723	-149.39558	-143.76151	820.88428	-113.25707	-144.87074	793.09088	-170.49641	-219.02963	777.54517	-154.09334	-182.31439	723.26331	-164.34987	-137.82663	698.88068	-202.00754	319.47070	1329.72241	-196.58026	361.16525	1152.00183	-240.74008	297.98587	1129.70337	-114.53713	330.68475	1062.16003	-148.13095	351.13385	963.78143	-72.71471	296.27155	929.47852	-68.88356	327.41870	870.34705	-51.78535	280.37943	869.35571	-41.76369	242.18784	821.11163	-25.97631	245.31346	764.44135	-37.36551	337.91937	800.05536	-37.25717	314.69727	744.32196	-49.33195	293.00931	697.56720	-342.22098	48.43887	1089.50989	-243.58330	-136.36258	1031.14368	-245.20471	234.19221	1032.57410	-132.09686	-117.30685	633.12500	-26.97221	-39.61163	584.03180	-74.94843	-87.31121	519.10034	-58.80134	25.24588	518.83380	-4.56318	-59.92726	354.51126	-15.76974	-83.42621	80.34129	27.39280	2.99308	114.59374	-51.45174	-16.24778	43.08442	158.36728	-72.70890	108.26839	106.40432	-26.40752	110.71383	-247.99475	208.30707	651.24701	-247.43095	182.52000	497.43573	-228.54642	67.58006	500.05072	-272.93616	121.12265	301.27417	-412.32053	115.66225	79.01753	-369.49988	30.01773	119.65504	-461.78000	51.84151	77.53639	-232.35039	76.16945	43.99728	-290.56149	46.08995	73.79977																																																																																																																															
